<?xml version="1.0" encoding="UTF-8"?><svg id="Camada_2" xmlns="http://www.w3.org/2000/svg" viewBox="0 0 512 404.03"><defs><style>.cls-1{fill:#3c2615;}</style></defs><g id="Layer_1"><g><path class="cls-1" d="M218.53,384c-2.63,0-5.21,1.06-7.07,2.93-1.86,1.86-2.93,4.43-2.93,7.06s1.07,5.22,2.93,7.08c1.86,1.86,4.44,2.93,7.07,2.93s5.21-1.07,7.07-2.93c1.86-1.86,2.93-4.44,2.93-7.08s-1.07-5.2-2.93-7.06c-1.86-1.87-4.44-2.93-7.07-2.93h0Z"/><path class="cls-1" d="M417.71,216.11l-7.19-32.47c1.2,.15,2.42,.23,3.66,.23h20c5.52,0,10-4.48,10-10v-40c0-5.52-4.48-10-10-10h-20c-5.83,0-11.27,1.68-15.88,4.56l-3.9-17.61c12.18-1.65,21.6-12.11,21.6-24.73v-18.06c0-13.77-11.2-24.97-24.97-24.97h-59.03c-10.6,0-19.68,6.65-23.3,16h-23.7c-14.34,0-26,11.67-26,26s11.66,26,26,26h51.47v20.15c0,5.52,4.48,10,10,10s10-4.48,10-10v-20.15h17.5l25.1,113.42-47.51,84.62c-5.19,9.21-14.98,14.93-25.55,14.93h-118.6c-4.97-41.63-40.46-74.03-83.41-74.03-19,0-36.93,6.19-51.85,17.9-.02,.01-.04,.03-.06,.04-17.76,13.97-28.93,34.02-31.53,56.08H20.02c1.3-71.89,60.19-129.96,132.38-129.96h54.94c5.6,0,10.16,4.55,10.16,10.16v89.81c0,5.52,4.48,10,10,10h69.21c21.71,0,41.71-11.8,52.2-30.8,4.86-8.79,7.43-18.74,7.44-28.78l.05-33.23c0-5.52-4.46-10-9.99-10.01h-.01c-5.52,0-9.99,4.46-10,9.98l-.05,33.23c0,6.67-1.71,13.29-4.94,19.12-6.98,12.63-20.27,20.47-34.7,20.47h-59.21v-79.81c0-8.31-3.38-15.85-8.84-21.31,5.49-6.04,8.84-14.06,8.84-22.84,0-9.93-4.28-18.87-11.09-25.1,1.34-2.68,2.12-5.7,2.12-8.9V20c0-11.03-8.97-20-20-20H102.47c-11.03,0-20,8.97-20,20v58H40.09c-5.52,0-10,4.48-10,10s4.48,10,10,10h42.38v28.06H10c-5.52,0-10,4.48-10,10s4.48,10,10,10H76.53c-1.94,4.27-3.03,9.01-3.03,14,0,11.67,5.91,21.99,14.9,28.11C36.25,212.41,0,265.28,0,326.47v7.56c0,5.52,4.48,10,10,10h56.2c-.13,.64-.2,1.31-.2,2,0,14.51,5.37,27.79,14.21,37.97H40.09c-5.52,0-10,4.48-10,10s4.48,10,10,10H122.84c.39,0,.77,.03,1.16,.03,31.98,0,58-26.02,58-58,0-.69-.07-1.36-.2-2h144.21c15.75,0,30.46-7.55,39.68-20.03h12.66c-2.85,6.93-4.36,14.4-4.36,22.03,0,14.51,5.37,27.79,14.21,37.97h-129.68c-5.52,0-10,4.48-10,10s4.48,10,10,10h172.31c.39,0,.77,.03,1.16,.03,31.98,0,58-26.02,58-58,0-7.63-1.51-15.1-4.36-22.03h16.36c5.52,0,10-4.48,10-10,0-52.79-41.97-95.95-94.29-97.89h0Zm-3.53-72.23h10v20h-10c-5.52,0-10-4.48-10-10s4.48-10,10-10h0ZM166.38,20v22.02h-22.02V20h22.02Zm-63.91,0h21.89V52.02c0,5.52,4.48,10,10,10h42.02c5.52,0,10-4.48,10-10V20h22.15l.02,106.06H102.47V20Zm5.03,154.06c-7.72,0-14-6.28-14-14s6.28-14,14-14h96c7.72,0,14,6.28,14,14s-6.28,14-14,14H107.5Zm54.5,171.97c0,20.82-16.84,37.78-37.61,37.99-.13,0-.26-.02-.39-.02h-1.15c-20.42-.61-36.85-17.4-36.85-37.97,0-.69-.07-1.36-.2-2h76.4c-.13,.64-.2,1.31-.2,2h0Zm-101.26-22c2.48-15.89,10.82-30.24,23.71-40.36,.03-.02,.06-.05,.09-.07,11.35-8.9,25-13.6,39.46-13.6,31.91,0,58.43,23.46,63.25,54.03H60.74ZM279,85.06c0-3.31,2.69-6,6-6h22.03v7.03c0,1.7,.17,3.36,.5,4.97h-22.53c-3.31,0-6-2.69-6-6h0Zm67.47,6h-14.47c-2.74,0-4.97-2.23-4.97-4.97v-18.06c0-2.74,2.23-4.97,4.97-4.97h59.03c2.74,0,4.97,2.23,4.97,4.97v18.06c0,2.74-2.23,4.97-4.97,4.97h-44.56Zm123.53,254.97c0,20.82-16.84,37.78-37.61,37.99-.13,0-.26-.02-.39-.02h-1.15c-20.42-.61-36.85-17.4-36.85-37.97,0-7.94,2.48-15.62,7.04-22.03h61.92c4.56,6.41,7.04,14.09,7.04,22.03h0Zm-2.26-42.03h-90.38l38.13-67.92c38.95,.72,71,30.11,75.87,67.92h-23.62Z"/><path class="cls-1" d="M346.47,181.21c5.52,0,10-4.48,10-10s-4.48-10-10-10h-.04c-5.52,0-9.98,4.48-9.98,10s4.5,10,10.02,10h0Z"/></g></g></svg>