<?xml version="1.0" encoding="UTF-8"?><svg id="Camada_2" xmlns="http://www.w3.org/2000/svg" viewBox="0 0 1745.89 384"><defs><style>.cls-1{fill:#3d2514;}.cls-2{fill:#3c2615;}</style></defs><g id="Layer_1"><g><path class="cls-2" d="M203.25,79.5c0,6.21-5.03,11.25-11.25,11.25s-11.25-5.04-11.25-11.25,5.03-11.25,11.25-11.25,11.25,5.04,11.25,11.25h0Z"/><path class="cls-2" d="M293.25,79.5c0,6.21-5.04,11.25-11.25,11.25s-11.25-5.04-11.25-11.25,5.03-11.25,11.25-11.25,11.25,5.04,11.25,11.25h0Z"/><path class="cls-2" d="M248.25,57c0,6.21-5.04,11.25-11.25,11.25s-11.25-5.04-11.25-11.25,5.04-11.25,11.25-11.25,11.25,5.04,11.25,11.25h0Z"/><path class="cls-2" d="M158.25,57c0,6.21-5.04,11.25-11.25,11.25s-11.25-5.04-11.25-11.25,5.04-11.25,11.25-11.25,11.25,5.04,11.25,11.25h0Z"/><path class="cls-2" d="M113.25,79.5c0,6.21-5.04,11.25-11.25,11.25s-11.25-5.04-11.25-11.25,5.04-11.25,11.25-11.25,11.25,5.04,11.25,11.25h0Z"/><path class="cls-2" d="M384,225.75c0-21.2-14.74-39.01-34.5-43.75v-23.75c6.21,0,11.25-5.04,11.25-11.25v-23.25C360.75,55.52,305.23,0,237,0h-90C78.77,0,23.25,55.52,23.25,123.75v23.25c0,6.21,5.03,11.25,11.25,11.25v23.75C14.74,186.74,0,204.55,0,225.75s14.74,39.01,34.5,43.75v23.75c-6.22,0-11.25,5.04-11.25,11.25v23.25c0,31.02,25.23,56.25,56.25,56.25h225c31.02,0,56.25-25.23,56.25-56.25v-23.25c0-5.96-4.64-10.82-10.5-11.21v-23.96c19.39-5.01,33.75-22.65,33.75-43.58h0Zm-90.75,67.5v-22.5h34.5v22.5h-34.5Zm68.25-67.5c0,12.41-10.09,22.5-22.5,22.5h-45.75v-45h45.75c12.41,0,22.5,10.09,22.5,22.5h0ZM45.75,123.75c0-55.83,45.42-101.25,101.25-101.25h90c55.83,0,101.25,45.42,101.25,101.25v12H45.75v-12Zm281.25,34.5v22.5h-45c-6.22,0-11.25,5.03-11.25,11.25v112.5c0,6.2-5.05,11.25-11.25,11.25s-11.25-5.05-11.25-11.25v-112.5c0-6.22-5.04-11.25-11.25-11.25h-67.5c-6.22,0-11.25,5.03-11.25,11.25s-5.05,11.25-11.25,11.25-11.25-5.05-11.25-11.25-5.04-11.25-11.25-11.25H57v-22.5H327ZM22.5,225.75c0-12.41,10.09-22.5,22.5-22.5H115.18c4.64,13.1,17.16,22.5,31.82,22.5s27.18-9.4,31.82-22.5h46.93v45H45c-12.41,0-22.5-10.09-22.5-22.5h0Zm34.5,45H225.75v22.5H57v-22.5Zm281.25,57c0,18.61-15.14,33.75-33.75,33.75H79.5c-18.61,0-33.75-15.14-33.75-33.75v-12H227.68c4.64,13.09,17.15,22.5,31.82,22.5s27.17-9.41,31.82-22.5h46.93v12Z"/></g><g><path class="cls-1" d="M618.48,163.67v6.9c0,19.86-6.07,32.55-19.59,38.9,16.27,6.34,22.62,20.97,22.62,41.38v15.72c0,29.79-15.72,45.79-46.07,45.79h-47.72V119.25h45.79c31.45,0,44.97,14.62,44.97,44.41Zm-60.41-16.83v51.03h11.86c11.31,0,18.21-4.96,18.21-20.41v-10.76c0-13.79-4.69-19.86-15.45-19.86h-14.62Zm0,78.62v59.31h17.38c10.21,0,15.72-4.69,15.72-19.03v-16.83c0-17.93-5.79-23.45-19.59-23.45h-13.52Z"/><path class="cls-1" d="M668.68,119.25v148.96c0,13.79,6.07,18.76,15.72,18.76s15.72-4.96,15.72-18.76V119.25h28.69v147.03c0,30.9-15.45,48.55-45.24,48.55s-45.24-17.66-45.24-48.55V119.25h30.34Z"/><path class="cls-1" d="M812.95,312.35c-1.65-4.96-2.76-8-2.76-23.72v-30.34c0-17.93-6.07-24.55-19.86-24.55h-10.48v78.62h-30.34V119.25h45.79c31.45,0,44.97,14.62,44.97,44.41v15.17c0,19.86-6.34,32.83-19.86,39.17,15.17,6.34,20.14,20.96,20.14,41.1v29.79c0,9.38,.27,16.28,3.31,23.45h-30.9Zm-33.1-165.51v59.31h11.86c11.31,0,18.21-4.96,18.21-20.41v-19.03c0-13.79-4.69-19.86-15.45-19.86h-14.62Z"/><path class="cls-1" d="M905.92,204.77h42.48v61.24c0,30.9-15.45,48.55-45.24,48.55s-45.24-17.65-45.24-48.55v-100.41c0-30.9,15.45-48.55,45.24-48.55s45.24,17.65,45.24,48.55v18.76h-28.69v-20.69c0-13.79-6.07-19.03-15.72-19.03s-15.72,5.24-15.72,19.03v104.28c0,13.79,6.07,18.76,15.72,18.76s15.72-4.96,15.72-18.76v-35.59h-13.79v-27.58Z"/><path class="cls-1" d="M998.33,200.63h41.65v27.58h-41.65v56.55h52.41v27.59h-82.76V119.25h82.76v27.59h-52.41v53.79Z"/><path class="cls-1" d="M1132.95,312.35c-1.65-4.96-2.76-8-2.76-23.72v-30.34c0-17.93-6.07-24.55-19.86-24.55h-10.48v78.62h-30.34V119.25h45.79c31.45,0,44.97,14.62,44.97,44.41v15.17c0,19.86-6.34,32.83-19.86,39.17,15.17,6.34,20.14,20.96,20.14,41.1v29.79c0,9.38,.27,16.28,3.31,23.45h-30.9Zm-33.1-165.51v59.31h11.86c11.31,0,18.21-4.96,18.21-20.41v-19.03c0-13.79-4.69-19.86-15.45-19.86h-14.62Z"/><path class="cls-1" d="M1253.49,312.35h-30.34V119.25h30.34v82.76h34.48V119.25h30.9v193.1h-30.9v-82.76h-34.48v82.76Z"/><path class="cls-1" d="M1338.45,165.6c0-30.9,16.27-48.55,46.07-48.55s46.07,17.65,46.07,48.55v100.41c0,30.9-16.27,48.55-46.07,48.55s-46.07-17.65-46.07-48.55v-100.41Zm30.34,102.34c0,13.79,6.07,19.03,15.72,19.03s15.72-5.24,15.72-19.03v-104.28c0-13.79-6.07-19.03-15.72-19.03s-15.72,5.24-15.72,19.03v104.28Z"/><path class="cls-1" d="M1479.14,119.25v148.96c0,13.79,6.07,18.76,15.72,18.76s15.72-4.96,15.72-18.76V119.25h28.69v147.03c0,30.9-15.45,48.55-45.24,48.55s-45.24-17.66-45.24-48.55V119.25h30.34Z"/><path class="cls-1" d="M1600.79,117.05c29.52,0,44.69,17.65,44.69,48.55v6.07h-28.69v-8c0-13.79-5.52-19.03-15.17-19.03s-15.17,5.24-15.17,19.03c0,39.72,59.31,47.17,59.31,102.34,0,30.9-15.45,48.55-45.24,48.55s-45.24-17.65-45.24-48.55v-11.86h28.69v13.79c0,13.79,6.07,18.76,15.72,18.76s15.72-4.96,15.72-18.76c0-39.72-59.31-47.17-59.31-102.34,0-30.9,15.17-48.55,44.69-48.55Z"/><path class="cls-1" d="M1693.47,200.63h41.65v27.58h-41.65v56.55h52.41v27.59h-82.76V119.25h82.76v27.59h-52.41v53.79Z"/></g></g></svg>